<?xml version="1.0" encoding="utf-8"?>
<!-- Generator: Adobe Illustrator 30.2.1, SVG Export Plug-In . SVG Version: 9.03 Build 0)  -->
<svg version="1.1" baseProfile="tiny" id="Capa_1" xmlns="http://www.w3.org/2000/svg" xmlns:xlink="http://www.w3.org/1999/xlink"
	 x="0px" y="0px" width="125px" height="125px" viewBox="0 0 125 125" overflow="visible" xml:space="preserve">
<path fill="#2887C9" d="M105.9,122.3H19.1c-9.1,0-16.4-7.3-16.4-16.4V19.1C2.7,10,10,2.7,19.1,2.7h86.9c9.1,0,16.4,7.3,16.4,16.4
	v86.9C122.3,115,115,122.3,105.9,122.3z"/>
<g>
	<path fill="#E9ECEF" d="M68.6,60.9c-2.6,0.9-3.9-4.6-4.8-6.7c-0.9-2-8.2-2.7-10.8-5.2c2-1.8,3.9-3.3,6.4-3.4l5.2,1.1l13.5-11.6
		l-21.2-9.6c-1.1-0.5-2-1.8-1.8-2.8c0.2-0.8,1.5-1.9,2.7-1.9c10.5,0,20.8,2.1,31,4.9l9.4-7.6c3.9-3.2,13.6-6.8,12.4-1.7
		c-1.7,7.2-9.1,13.5-14.4,18.6c0.9,7.4,1.7,14.7,1.5,22.3c-0.1,2.7-1.8,5-4.5,5.1c-1.1-0.7-1.7-1.9-2.2-3.1l-5.4-15.4
		c-5.3,3.6-10.2,6.6-15.7,9.4C69.1,55.2,70.6,60.1,68.6,60.9z"/>
	<path fill="#064A7A" d="M97.8,100.5l11.1-1c-5.5,2.4-10.9,3.7-16.7,5.4c-19.5,5.6-55.3,11.8-72-2.1c-5.9-4.9-7.4-12.3-4-19.1
		c6-11.9,21.2-21.6,33.9-25.9C40.8,64,26.1,74.2,29,87.1c3.5,10.5,21.4,13.8,31.1,14.5C72.7,102.4,84.9,101.6,97.8,100.5z"/>
	<path fill="#064A7A" d="M39.4,75.8c-2.9,5.1-3.8,10.6-2.8,16.5C26.2,76.8,47.4,60,60.7,54.8C51.7,61.5,45,65.7,39.4,75.8z"/>
</g>
</svg>
