<?xml version="1.0" encoding="utf-8"?>
<!-- Generator: Adobe Illustrator 30.2.1, SVG Export Plug-In . SVG Version: 9.03 Build 0)  -->
<svg version="1.1" baseProfile="tiny" id="Capa_1" xmlns="http://www.w3.org/2000/svg" xmlns:xlink="http://www.w3.org/1999/xlink"
	 x="0px" y="0px" width="388.6px" height="92px" viewBox="0 0 388.6 92" overflow="visible" xml:space="preserve">
<g>
	<path fill="#0C1420" d="M120.3,68.4c-8.5,7.2-23,6.3-32.6,2.1c-2.6-1.1-4.6-2.8-6.8-4.7l6.1-7c5.3,3.7,11.2,5.6,17.6,5.4
		c4.6-0.2,10.1-2.4,9.2-7.3c-0.9-4.7-12.5-6.1-20.1-11c-6.2-4-8-11.6-4.1-17.9c2.9-4.7,7.9-7.7,13.3-8.8c7.9-1.7,19.1-0.5,25.4,5.3
		l-4.7,7c-0.2,0.2-0.1,0.6-0.1,0.9c-0.4,1.1-8.3-6.9-19.6-3.3c-2.8,0.9-5,3.7-3.8,6.5c0.8,1.8,2.8,2.8,4.5,3.4l11.6,4.3
		c3.6,1.3,6.6,3.9,8.4,7.4C127.5,56.6,125.7,63.9,120.3,68.4z"/>
	<path fill="#4189C9" d="M368,50.5l14.9,22.3l-12.6,0l-10.5-15.6l-4.4,3.9l-1.6,12l-10.8-0.3l7.3-54l10.9,0l-3.9,29.9l13.1-12.3
		c1-1,2.1-1.6,3.5-1l10.2,0.1L368,50.5z"/>
	<path fill="#0C1420" d="M167.2,72.8l-12.7,0l-10.1-15.4c-1.6,1.2-2.8,2.3-4,3.5l-1.2,11.8l-10.8,0l6.5-54.1l10.9,0.1l-3.4,29.1
		l13.9-12.4c3.8-0.2,7.8-0.4,12.1,0.1l-15.6,15.1L167.2,72.8z"/>
	<path fill="#0C1420" d="M205.4,45.4l-15.9,31c-2,3.8-4.3,7.3-8,9.5c-4.9,2.9-11.1,2.7-16.3,0.5l3.4-8.1c5.9,1.6,10.1-0.3,12-6.1
		l-12-36.7c4.4-0.2,8.2-0.2,12,0l7,24.1l11-24.1l12-0.1C208.6,38.6,207.2,41.9,205.4,45.4z"/>
	<path fill="#4189C9" d="M275.8,72.9c-4.1-1.1-6.5-4.5-6.5-8.6c0.2-13.3,14.4-16,25.3-15.4c1-0.7,0.5-2.7-0.1-3.9
		c-0.5-1.1-2-1.7-3.5-2c-5.2-0.8-10.3,1.1-14.6,4.4c-1.2-2.2-1.9-4.4-2.9-6.7c5.8-5.4,17-6.6,24.1-4.8c4.9,1.2,8.2,5.7,7.6,11
		l-3.1,26l-9.9,0.1l-0.3-4C287.5,73,281.7,74.5,275.8,72.9z M292.8,61c1-1.8,1-3.9,1.4-6.1c-3.3,0-6.2,0.5-9,1.6
		c-3.9,1.5-5.8,6-3.9,8.1C282.9,66.5,290.1,65.8,292.8,61z"/>
	<path fill="#4189C9" d="M228.5,72.8l-9.2,0.1c-0.6,0-2.6,0.3-2.5-0.5l5.5-43.2L206,29l1.4-8.8l44.7,0l-1,8.9l-14.7,0.1
		c-0.8,0-1.5,0.1-2.2,0.4L228.5,72.8z"/>
	<path fill="#0C1420" d="M49.7,40.7c-2.1,0.8-3.1-3.7-3.9-5.4c-0.7-1.6-6.7-2.2-8.8-4.2c1.6-1.4,3.2-2.7,5.2-2.8l4.2,0.9l10.9-9.4
		l-17.1-7.8c-0.9-0.4-1.6-1.5-1.4-2.2C38.9,9.2,40,8.3,41,8.3c8.5,0,16.8,1.7,25,3.9L73.5,6c3.2-2.6,11-5.5,10-1.4
		c-1.4,5.8-7.3,10.9-11.6,15c0.8,6,1.4,11.9,1.2,18c0,2.2-1.4,4-3.7,4.1c-0.9-0.5-1.4-1.5-1.8-2.5l-4.3-12.5
		c-4.3,2.9-8.2,5.3-12.7,7.6C50.1,36.1,51.3,40.1,49.7,40.7z"/>
	<path fill="#4089C9" d="M73.2,72.7l9-0.8c-4.4,2-8.8,3-13.5,4.4c-15.8,4.5-44.7,9.6-58.2-1.7c-4.7-4-6-10-3.2-15.4
		c4.9-9.6,17.1-17.4,27.4-20.9c-7.5,5-19.4,13.3-17,23.7c2.9,8.5,17.3,11.1,25.1,11.7C53,74.2,62.8,73.5,73.2,72.7z"/>
	<path fill="#4189C9" d="M326,64.8c4.1,0.3,7.8-1.1,11.3-3.4l3,6.7c-5,4.5-11.3,5.7-17.8,5.3c-7.1-0.4-13-4.5-14.6-11.6
		c-2-9.1,1.7-19.2,10.1-24c6.9-3.9,20.7-4.5,25.9,2.3l-4,6.1c-4.3-3.5-10.2-4.4-15-1.8c-4.5,2.4-6.3,7.2-6.4,12
		C318.2,61.2,321,64.5,326,64.8z"/>
	<path fill="#4189C9" d="M254.1,72.8l-9.3,0.1c-0.7,0-1.5,0.4-2-0.1l4.9-37.4l10.9-0.1l-0.3,5.6c3.7-4.6,9-6.9,14.7-5
		c0,3.2-0.7,6.4-1.7,9.6c-4.6-1.4-9.3-0.4-12.5,3.1c-1.4,1.5-2,3.6-2.2,5.6L254.1,72.8z"/>
	<path fill="#4089C9" d="M26.1,52.7c-2.3,4.1-3.1,8.6-2.3,13.3c-8.4-12.4,8.8-26,19.5-30.3C36,41.1,30.6,44.5,26.1,52.7z"/>
</g>
</svg>
